# xmcd CD database file
# 
# Track frame offsets:
# 	150
# 	14806
# 	28990
# 	43945
# 	57470
# 	75519
# 	95211
# 	109858
# 	121356
# 	132807
# 	147365
# 	162502
# 	174537
# 
# Disc length: 2538 seconds
# 
# Submitted via: Nero 6, 6, 0, 0
# 
# Revision: 0
# Processed by: cddbd v1.5.1PL0 Copyright (c) Steve Scherf et al.
#
DISCID=c109e80d
DTITLE=Speed Limit - Keeping The Peace
DYEAR=1900
DGENRE=
TTITLE0=I Want You To Be My Man Forever
TTITLE1=A Little Peace
TTITLE2=How Can I Run To Him
TTITLE3=Nothings Changed Here
TTITLE4=Voices Of The Highlands
TTITLE5=Amazed
TTITLE6=You Never Can Tell (C'est La Vie)
TTITLE7=Might Seem Like A Loser
TTITLE8=Walk Out Backwards
TTITLE9=Unopened
TTITLE10=Turn It On
TTITLE11=Two Steppin' Texas Blue
TTITLE12=The Key To Life
EXTD=
EXTT0=
EXTT1=
EXTT2=
EXTT3=
EXTT4=
EXTT5=
EXTT6=
EXTT7=
EXTT8=
EXTT9=
EXTT10=
EXTT11=
EXTT12=
PLAYORDER=
